<svg width="251" height="92" viewBox="0 0 251 92" fill="none" xmlns="http://www.w3.org/2000/svg">
<path d="M102.27 48.36C102.49 48.14 102.64 47.97 102.73 47.83C106.99 42.77 109.56 36.23 109.56 29.1C109.56 13.03 96.53 0 80.46 0C69.34 0 59.68 6.23001 54.78 15.39C49.88 6.23001 40.22 0 29.1 0C13.03 0 0 13.03 0 29.1C0 35.8 2.26 41.96 6.06 46.88C6.12 47.02 6.28 47.23 6.56 47.51C7.9 49.14 9.41001 50.63 11.07 51.94L49.26 89.5C52.53 92.77 57.82 92.77 61.09 89.5L99.7 50.93C100.61 50.13 101.46 49.27 102.27 48.36Z" fill="white"/>
<path d="M49.04 75.62C39.13 74.29 31.04 69.9 31.04 58.59H50.16C50.16 60.13 50.44 61.52 51.21 62.57C51.98 63.55 53.23 64.18 55.12 64.18C58.05 64.18 59.94 62.3 59.94 59.99C59.94 58.38 58.47 57.2 56.59 56.64L42.14 52.38C36.07 50.57 31.95 46.24 31.95 38.98C31.95 30.05 38.09 24.46 49.05 22.58V15.88H59.38V22.58C69.78 23.63 77.11 27.88 77.11 38.21H59.24C59.03 35.35 57.57 34.02 54.63 34.02C51.49 34.02 50.23 35.28 50.23 36.81C50.23 38.34 51 39.46 54.42 40.44C59.17 41.77 65.31 43.09 69.49 44.84C75.84 47.49 78.63 52.03 78.63 58.1C78.63 68.92 70.88 74.22 59.37 75.62V82.32H49.04V75.62V75.62Z" fill="#39B54A"/>
<path d="M51.21 62.57C51.98 63.55 53.23 64.18 55.12 64.18C58.05 64.18 59.94 62.3 59.94 59.99C59.94 58.38 58.47 57.2 56.59 56.64L42.14 52.38C39.74 51.66 37.65 50.55 35.99 49.02L45.97 58.59H50.16C50.16 60.13 50.44 61.52 51.21 62.57Z" fill="white"/>
<path d="M73.8399 28.54C75.9199 30.91 77.0999 34.08 77.0999 38.22H59.2299C59.0199 35.36 57.5599 34.03 54.6199 34.03C51.4799 34.03 50.2199 35.29 50.2199 36.82C50.2199 38.35 50.9899 39.47 54.4099 40.45C59.1599 41.78 65.2999 43.1 69.4799 44.85C75.8299 47.5 78.6199 52.04 78.6199 58.11C78.6199 68.93 70.8699 74.23 59.3599 75.63V82.33H49.0299V75.63C43.9399 74.95 39.3299 73.45 36.0499 70.63L57.8399 91.52C59.0199 91.12 60.1299 90.45 61.0699 89.51L98.4499 52.16L73.8399 28.54Z" fill="white"/>
<path d="M59.3699 22.58C62.9299 22.94 66.1299 23.67 68.7999 24.9L59.3899 15.88L59.3699 15.9V22.58Z" fill="white"/>
<path d="M34.7199 69.31L34.7 69.32L34.9299 69.54C34.8599 69.46 34.7899 69.38 34.7199 69.31Z" fill="white"/>
<path d="M35.26 48.3L35.24 48.32L35.65 48.71C35.52 48.58 35.39 48.44 35.26 48.3Z" fill="white"/>
<path d="M121.77 36.44V17.94H122.77V36.25C122.77 38.36 123.71 39.54 125.7 39.54C126.3 39.54 126.85 39.42 127.21 39.27L127.3 40.11C126.82 40.29 126.21 40.41 125.64 40.41C123.1 40.43 121.77 38.86 121.77 36.44Z" fill="white"/>
<path d="M128.44 32.49C128.44 27.84 131.73 24.55 136.13 24.55C140.57 24.55 143.82 27.84 143.82 32.49C143.82 37.14 140.56 40.43 136.13 40.43C131.73 40.43 128.44 37.14 128.44 32.49ZM142.83 32.49C142.83 28.33 139.96 25.49 136.13 25.49C132.3 25.49 129.43 28.33 129.43 32.49C129.43 36.65 132.3 39.52 136.13 39.52C139.96 39.52 142.83 36.65 142.83 32.49Z" fill="white"/>
<path d="M160.39 24.68L153.24 40.34H152.24L145.09 24.68H146.18L152.76 39.22L159.34 24.68H160.39Z" fill="white"/>
<path d="M174.84 37.2L175.44 37.86C174.05 39.55 171.94 40.42 169.59 40.42C165 40.42 161.65 37.13 161.65 32.48C161.65 27.83 164.79 24.54 169.16 24.54C173.26 24.54 176.13 27.74 176.37 31.66L162.85 34.35C163.6 37.46 166.17 39.51 169.61 39.51C171.7 39.52 173.6 38.77 174.84 37.2ZM162.62 32.4C162.62 32.79 162.65 33.18 162.68 33.55L175.35 31.08C174.96 28.09 172.63 25.47 169.17 25.47C165.34 25.46 162.62 28.39 162.62 32.4Z" fill="white"/>
<path d="M195.87 39.34C195.12 40.06 193.88 40.43 192.73 40.43C190.14 40.43 188.75 38.86 188.75 36.42V21.24H189.75V24.68H194.91V25.56H189.75V36.27C189.75 38.38 190.81 39.56 192.83 39.56C193.8 39.56 194.73 39.23 195.36 38.62L195.87 39.34Z" fill="white"/>
<path d="M214.03 31.13V40.33H213.03V31.19C213.03 27.45 211.04 25.49 207.63 25.49C203.71 25.49 201.32 28.02 201.32 31.89V40.34H200.32V17.95H201.32V28.42C202.35 26.07 204.58 24.56 207.72 24.56C211.56 24.55 214.03 26.82 214.03 31.13Z" fill="white"/>
<path d="M231.98 37.2L232.58 37.86C231.19 39.55 229.08 40.42 226.73 40.42C222.14 40.42 218.79 37.13 218.79 32.48C218.79 27.83 221.93 24.54 226.3 24.54C230.4 24.54 233.27 27.74 233.51 31.66L219.99 34.35C220.74 37.46 223.31 39.51 226.75 39.51C228.84 39.52 230.75 38.77 231.98 37.2ZM219.76 32.4C219.76 32.79 219.79 33.18 219.82 33.55L232.49 31.08C232.1 28.09 229.77 25.47 226.31 25.47C222.48 25.46 219.76 28.39 219.76 32.4Z" fill="white"/>
<path d="M83.24 90.43V47.58H100.33V76.27H117.87V90.43H83.24Z" fill="#39B54A"/>
<path d="M139.29 91.32C125.43 91.32 115.37 81.94 115.37 69.01C115.37 56.08 125.43 46.7 139.29 46.7C153.15 46.7 163.21 56.08 163.21 69.01C163.21 81.94 153.16 91.32 139.29 91.32ZM139.29 61.29C135.27 61.29 132.58 64.39 132.58 69C132.58 73.61 135.28 76.71 139.29 76.71C143.31 76.71 146 73.61 146 69C146.01 64.39 143.31 61.29 139.29 61.29Z" fill="#39B54A"/>
<path d="M186.36 91.32C172.5 91.32 162.44 81.94 162.44 69.01C162.44 56.08 172.5 46.7 186.36 46.7C200.22 46.7 210.28 56.08 210.28 69.01C210.28 81.94 200.22 91.32 186.36 91.32ZM186.36 61.29C182.34 61.29 179.65 64.39 179.65 69C179.65 73.61 182.35 76.71 186.36 76.71C190.37 76.71 193.07 73.61 193.07 69C193.07 64.39 190.37 61.29 186.36 61.29Z" fill="#39B54A"/>
<path d="M219.77 90.43V62.3C217.71 62.92 215.69 63.78 213.64 64.93L211.76 65.98L205.77 53.07L207.31 52.14C213.13 48.63 220.59 46.69 228.33 46.69C236.07 46.69 243.53 48.63 249.35 52.14L250.89 53.07L244.9 65.98L243.02 64.93C240.94 63.77 238.95 62.91 236.89 62.3V90.44H219.77V90.43Z" fill="#39B54A"/>
<path d="M85.24 49.58H98.34V78.28H115.88V88.44H85.24V49.58V49.58Z" fill="white"/>
<path d="M117.37 69C117.37 57.23 126.64 48.69 139.29 48.69C151.94 48.69 161.21 57.24 161.21 69C161.21 80.77 151.94 89.31 139.29 89.31C126.64 89.32 117.37 80.77 117.37 69ZM148.01 69C148.01 62.95 144.12 59.29 139.3 59.29C134.47 59.29 130.59 62.95 130.59 69C130.59 75.05 134.48 78.71 139.3 78.71C144.12 78.72 148.01 75.05 148.01 69Z" fill="white"/>
<path d="M164.44 69C164.44 57.23 173.71 48.69 186.36 48.69C199.01 48.69 208.28 57.24 208.28 69C208.28 80.77 199.01 89.31 186.36 89.31C173.7 89.32 164.44 80.77 164.44 69ZM195.07 69C195.07 62.95 191.18 59.29 186.36 59.29C181.53 59.29 177.65 62.95 177.65 69C177.65 75.05 181.54 78.71 186.36 78.71C191.19 78.72 195.07 75.05 195.07 69Z" fill="white"/>
<path d="M243.97 63.17C241.08 61.56 238.14 60.39 234.87 59.73V88.43H221.77V59.73C218.5 60.4 215.55 61.56 212.67 63.17L208.34 53.85C213.95 50.46 221.05 48.69 228.32 48.69C235.59 48.69 242.7 50.47 248.3 53.85L243.97 63.17Z" fill="white"/>
</svg>
