<svg width="12" height="12" viewBox="0 0 12 12" fill="none" xmlns="http://www.w3.org/2000/svg">
<path fill-rule="evenodd" clip-rule="evenodd" d="M1 5.99988C1 8.76132 3.23873 10.9999 6 10.9999C8.76127 10.9999 11 8.76132 11 5.99988C11 3.23877 8.76111 0.999878 6 0.999878C3.23889 0.999878 1 3.23877 1 5.99988ZM1.75 5.99988C1.75 3.65298 3.65311 1.74988 6 1.74988C8.34689 1.74988 10.25 3.65298 10.25 5.99988C10.25 8.34709 8.34707 10.2499 6 10.2499C3.65293 10.2499 1.75 8.34709 1.75 5.99988ZM4.97788 7.51172C4.86863 7.65829 4.88029 7.86665 5.01313 8.00007C5.15926 8.14683 5.3967 8.14734 5.54346 8.00121L7.28646 6.26571L7.32296 6.2236C7.43246 6.07656 7.42029 5.86749 7.28646 5.73424L5.54346 3.99874L5.50133 3.96252C5.35428 3.85391 5.14598 3.86646 5.01313 3.99988L4.97692 4.04202C4.8683 4.18906 4.88086 4.39736 5.01428 4.53021L6.49002 6.00047L5.01428 7.46974L4.97788 7.51172Z" fill="#FCFAFA"/>
</svg>
