<svg width="12" height="12" viewBox="0 0 12 12" fill="none" xmlns="http://www.w3.org/2000/svg">
<path fill-rule="evenodd" clip-rule="evenodd" d="M1 5.99988C1 8.76132 3.23873 10.9999 6 10.9999C8.76127 10.9999 11 8.76132 11 5.99988C11 3.23877 8.76111 0.999878 6 0.999878C3.23889 0.999878 1 3.23877 1 5.99988ZM1.75 5.99991C1.75 3.65302 3.65311 1.74991 6 1.74991C8.34689 1.74991 10.25 3.65302 10.25 5.99991C10.25 8.34712 8.34707 10.2499 6 10.2499C3.65293 10.2499 1.75 8.34712 1.75 5.99991ZM4.97785 7.51175C4.86861 7.65832 4.88026 7.86668 5.01311 8.0001C5.15924 8.14686 5.39668 8.14737 5.54344 8.00124L7.28644 6.26574L7.32294 6.22363C7.43243 6.07659 7.42027 5.86752 7.28644 5.73427L5.54344 3.99877L5.5013 3.96255C5.35426 3.85394 5.14596 3.86649 5.01311 3.99991L4.97689 4.04205C4.86828 4.18909 4.88083 4.39739 5.01425 4.53024L6.49 6.0005L5.01425 7.46977L4.97785 7.51175Z" fill="#6E8387"/>
</svg>
